# xmcd
#
# Track frame offsets: 
#        150
#        13462
#        22657
#        35590
#        47362
#        60612
#        72565
#        84412
#        96842
#        107435
#        119367
#        138602
#        151550
#        165005
#
# Disc length: 2382 seconds
#
# Revision: 0
# Processed by: cddbd v1.5PL3 Copyright (c) Steve Scherf et al.
# Submitted via: ExactAudioCopy v0.95a5
#
DISCID=a4094c0e
DTITLE=Tammy Wynette - The Essential Tammy Wynette
DYEAR=2004
DGENRE=Country
TTITLE0=Apartment #9
TTITLE1=Your Good Girl's Gonna Go Bad
TTITLE2=My Elusive Dreams (With David Houston)
TTITLE3=I don't Wanna Play House
TTITLE4=D-I-V-O-R-C-E
TTITLE5=Stand By Your Man
TTITLE6=He Loves Me All The Way
TTITLE7=We Sure Can Love Each Other
TTITLE8=Take Me (With George Jones)
TTITLE9='Til I Get It Right
TTITLE10=Bedtime Story
TTITLE11=Kids Say The Darndest Things
TTITLE12=Woman To Woman
TTITLE13='Til I Can Make It On My Own
EXTD=
EXTT0=
EXTT1=
EXTT2=
EXTT3=
EXTT4=
EXTT5=
EXTT6=
EXTT7=
EXTT8=
EXTT9=
EXTT10=
EXTT11=
EXTT12=
EXTT13=
PLAYORDER=
